<svg xmlns="http://www.w3.org/2000/svg" width="512" height="512" viewBox="0 0 512 512">
  <defs>
    <linearGradient id="g" x1="0" y1="0" x2="1" y2="1">
      <stop offset="0" stop-color="#1d4ed8"/>
      <stop offset="1" stop-color="#3b82f6"/>
    </linearGradient>
  </defs>
  <!-- full-bleed background for maskable -->
  <rect width="512" height="512" fill="url(#g)"/>
  <!-- content kept within central safe zone (~60%) -->
  <g transform="translate(256 256) scale(0.62) translate(-256 -256)">
    <path d="M256 150 L392 206 L256 262 L120 206 Z" fill="#ffffff"/>
    <path d="M256 262 L350 224 L350 300 C350 332 308 350 256 350 C204 350 162 332 162 300 L162 224 Z" fill="#ffffff" opacity="0.55"/>
    <line x1="392" y1="206" x2="392" y2="290" stroke="#fbbf24" stroke-width="8" stroke-linecap="round"/>
    <circle cx="392" cy="300" r="12" fill="#fbbf24"/>
    <rect x="150" y="372" width="212" height="22" rx="8" fill="#ffffff"/>
    <rect x="174" y="400" width="164" height="22" rx="8" fill="#ffffff" opacity="0.8"/>
    <rect x="198" y="428" width="116" height="22" rx="8" fill="#ffffff" opacity="0.6"/>
  </g>
</svg>
